HIERARCHY
ROOT Hips
{
	OFFSET 0.00000 0.00000 0.00000
	CHANNELS 6 Xposition Yposition Zposition Zrotation Yrotation Xrotation 
	JOINT RightUpLegDummy
	{
		OFFSET 0 0 0
		CHANNELS 3 Zrotation Yrotation Xrotation
		JOINT RightUpLeg
		{
			OFFSET -3.52197 -3.41223 0.04002
			CHANNELS 3 Zrotation Yrotation Xrotation
			JOINT RightLeg
			{
				OFFSET 0.00006 -17.42390 1.60435
				CHANNELS 3 Zrotation Yrotation Xrotation
				JOINT RightFoot
				{
					OFFSET 0.06154 -16.50078 -1.63900
					CHANNELS 3 Zrotation Yrotation Xrotation
					JOINT RightToes
					{
						OFFSET 0.00298 -1.73825 3.34613
						CHANNELS 3 Zrotation Yrotation Xrotation
						End Site
						{
							OFFSET 0.00480 -0.05416 3.85043
						}
					}
				}
			}
		}
	}
	JOINT SpineDummy
	{
		OFFSET 0 0 0
		CHANNELS 3 Zrotation Yrotation Xrotation
		JOINT Spine
		{
			OFFSET 0.00000 4.68130 0.00000
			CHANNELS 3 Zrotation Yrotation Xrotation
			JOINT Spine1
			{
				OFFSET -0.00000 10.10138 0.05002
				CHANNELS 3 Zrotation Yrotation Xrotation
				JOINT HEadDummy
				{
					OFFSET 0 0 0
					CHANNELS 3 Zrotation Yrotation Xrotation
					JOINT Head
					{
						OFFSET -0.00000 3.43865 0.00438
						CHANNELS 3 Zrotation Yrotation Xrotation
						End Site
						{
							OFFSET -0.11417 5.02924 0.98962
						}
					}
				}
				JOINT LeftShoulder1Dummy
				{
					OFFSET 0 0 0
					CHANNELS 3 Zrotation Yrotation Xrotation
					JOINT LeftShoulder1
					{
						OFFSET 3.53937 -0.14262 -0.08662
						CHANNELS 3 Zrotation Yrotation Xrotation
						JOINT LeftArm
						{
							OFFSET 4.04833 -0.00133 0.12681
							CHANNELS 3 Zrotation Yrotation Xrotation
							JOINT LeftForeArm
							{
								OFFSET 10.33880 -0.01036 -0.55515
								CHANNELS 3 Zrotation Yrotation Xrotation
								JOINT LeftHand
								{
									OFFSET 8.69677 0.07543 0.40060
									CHANNELS 3 Zrotation Yrotation Xrotation
									End Site
									{
										OFFSET 5.28377 -0.21905 0.59205
									}
								}
							}
						}
					}
				}
				JOINT RightShoulderDummy
				{
					OFFSET 0 0 0
					CHANNELS 3 Zrotation Yrotation Xrotation
					JOINT RightShoulder
					{
						OFFSET -3.53937 -0.14262 -0.08660
						CHANNELS 3 Zrotation Yrotation Xrotation
						JOINT RightArm
						{
							OFFSET -4.04833 -0.00133 0.12683
							CHANNELS 3 Zrotation Yrotation Xrotation
							JOINT RightForeArm
							{
								OFFSET -10.37987 -0.01039 -0.55511
								CHANNELS 3 Zrotation Yrotation Xrotation
								JOINT RightHand
								{
									OFFSET -8.67398 0.07538 0.40058
									CHANNELS 3 Zrotation Yrotation Xrotation
									End Site
									{
										OFFSET -5.24810 -0.21916 0.59204
									}
								}
							}
						}
					}
				}
			}
		}
	}
	JOINT LeftUpLegDummy
	{
		OFFSET 0 0 0
		CHANNELS 3 Zrotation Yrotation Xrotation
		JOINT LeftUpLeg
		{
			OFFSET 3.52197 -3.41223 0.04002
			CHANNELS 3 Zrotation Yrotation Xrotation
			JOINT LeftLeg
			{
				OFFSET -0.00012 -17.42399 1.60337
				CHANNELS 3 Zrotation Yrotation Xrotation
				JOINT LeftFoot
				{
					OFFSET -0.09972 -16.50070 -1.63802
					CHANNELS 3 Zrotation Yrotation Xrotation
					JOINT LeftToes
					{
						OFFSET -0.01575 -1.73823 3.34611
						CHANNELS 3 Zrotation Yrotation Xrotation
						End Site
						{
							OFFSET 0.03150 -0.01868 3.85031
						}
					}
				}
			}
		}
	}
}
MOTION
Frames: 12
Frame Time: 0.033333
71.0099 31.4272 -1.8042 163.5840 75.5606 -34.9454 0.0000 0.0000 0.0000 -2.0701 -31.1337 175.3994 -173.9124 -46.0641 155.5364 -20.6729 7.1750 26.3692 0.0000 0.0000 -0.0000 0.0000 0.0000 0.0000 99.2677 75.3741 -77.0066 99.8167 -79.1157 -89.4259 0.0000 0.0000 0.0000 1.0036 -3.9634 -15.7743 0.0000 0.0000 0.0000 -18.2394 -4.6708 2.0287 -63.4656 -26.3251 23.6048 -7.3149 -17.9238 5.7898 16.5408 -3.4052 -1.2297 0.0000 0.0000 0.0000 20.0090 0.8487 1.1526 58.2237 2.1283 -16.3297 10.3989 5.4519 36.6920 -4.1174 1.7484 -0.2374 0.0000 0.0000 0.0000 15.5908 0.1055 -154.4925 179.7002 31.4008 160.5602 -5.1458 1.1399 15.6957 -0.0000 -0.0000 0.0000
69.9772 31.3027 -1.8544 152.4420 76.9529 -45.5818 0.0000 0.0000 0.0000 -0.2960 -33.6980 170.3790 -165.0069 -46.9884 141.7351 -7.2901 3.3740 38.6609 0.0000 0.0000 -0.0000 0.0000 0.0000 0.0000 83.8840 77.4025 -92.3680 115.4463 -80.9888 -105.8048 0.0000 0.0000 0.0000 1.4565 -3.7853 -15.5610 0.0000 0.0000 0.0000 -17.3568 -4.3613 1.8875 -63.8116 -24.2317 13.8956 -10.7130 -14.0978 14.4251 15.4729 -3.2332 -1.1259 0.0000 0.0000 0.0000 20.0341 0.8523 1.1546 58.4475 3.6395 -14.9060 10.3916 6.7885 34.8272 -4.1993 1.7338 -0.2423 0.0000 0.0000 0.0000 18.1129 -0.7628 -157.1823 -179.8070 29.2269 160.0229 -5.8325 1.2465 14.4312 -0.0000 -0.0000 0.0000
68.9749 31.0769 -1.9003 136.6820 77.8866 -60.6732 0.0000 0.0000 0.0000 0.0053 -38.4876 166.5213 -165.1038 -39.1798 132.3731 6.1765 -3.4962 54.4634 0.0000 0.0000 -0.0000 0.0000 0.0000 0.0000 66.3260 78.4549 -110.6433 134.2161 -83.1284 -124.5406 0.0000 0.0000 0.0000 1.5375 -3.6767 -16.1403 0.0000 0.0000 0.0000 -17.0496 -4.3041 1.8518 -63.0516 -22.1794 5.7858 -12.6539 -10.7265 21.0546 13.9946 -3.0921 -0.9983 0.0000 0.0000 0.0000 20.0586 0.8365 1.1514 58.4113 6.1407 -12.2429 10.4433 8.3900 30.2833 -4.3970 1.2355 -0.2393 0.0000 0.0000 0.0000 20.8862 -1.5162 -160.6238 -179.6287 26.6530 158.3602 -6.0096 1.2625 13.9496 -0.0000 -0.0000 0.0000
67.8733 30.8761 -1.8048 122.6140 79.3222 -74.1428 0.0000 0.0000 0.0000 -0.6278 -63.3066 164.2406 159.7543 -8.3145 126.2114 -1.7153 0.8141 65.7484 0.0000 0.0000 -0.0000 0.0000 0.0000 0.0000 52.9767 78.0117 -124.8347 149.3777 -84.5564 -139.2122 0.0000 0.0000 0.0000 1.3698 -3.6892 -16.9542 0.0000 0.0000 0.0000 -17.2920 -4.4409 1.9020 -61.7618 -20.1629 -1.3971 -13.5463 -7.8829 25.9922 13.7862 -2.7220 -0.9409 0.0000 0.0000 0.0000 20.4127 0.8366 1.1659 57.4158 9.9342 -8.4374 10.7492 9.4170 26.4990 -5.9820 1.4242 -0.3406 0.0000 0.0000 0.0000 22.1288 -1.2227 -164.8524 -179.6115 23.5750 155.5232 -5.2217 1.0913 14.0482 -0.0000 -0.0000 0.0000
66.5997 30.9722 -1.6259 107.5680 81.3134 -88.7658 0.0000 0.0000 0.0000 -175.0482 -56.9791 -21.5569 84.9142 36.1461 90.2608 -29.3722 16.8479 46.3270 0.0000 0.0000 -0.0000 0.0000 0.0000 0.0000 44.4322 76.5731 -133.7861 159.3949 -85.1646 -148.8945 0.0000 0.0000 0.0000 1.2363 -3.6758 -17.3073 0.0000 0.0000 0.0000 -17.6328 -4.5237 1.9470 -60.7892 -18.1438 -9.1789 -13.7688 -4.6246 30.7846 15.2467 -2.4099 -1.0069 0.0000 0.0000 0.0000 20.8336 0.9359 1.2100 55.7894 14.6499 -5.3030 11.3716 9.2293 26.0504 -8.3905 1.9968 -0.5157 0.0000 0.0000 0.0000 21.9067 0.1920 -167.5460 -177.8400 20.0697 156.3795 -3.1854 0.5954 12.3582 -0.0000 -0.0000 0.0000
65.2488 31.1972 -1.4196 86.7523 83.3699 -109.1850 0.0000 0.0000 0.0000 -179.7510 -41.6744 -21.3046 52.2172 24.0858 66.2524 -38.2537 15.2455 30.2261 0.0000 0.0000 -0.0000 0.0000 0.0000 0.0000 37.9154 74.6238 -140.3352 164.7308 -85.0469 -154.3264 0.0000 0.0000 0.0000 1.1555 -3.4533 -17.1433 0.0000 0.0000 0.0000 -17.6535 -4.4590 1.9329 -60.6466 -16.1974 -15.6756 -13.1169 -1.0376 34.4839 17.1408 -2.6144 -1.1644 0.0000 0.0000 0.0000 20.7256 1.0727 1.2425 54.6061 19.5688 -4.1053 11.9613 8.2401 27.7220 -9.8567 1.7364 -0.5894 0.0000 0.0000 0.0000 20.6867 2.4564 -169.2541 -175.3286 16.0349 158.9594 -0.8096 0.0917 9.7053 -0.0000 -0.0000 0.0000
63.9627 31.3570 -1.2530 57.8590 84.1539 -137.6240 0.0000 0.0000 0.0000 -176.7690 -43.5434 -26.6416 49.1248 21.3152 67.0656 -40.9803 14.8997 26.8945 0.0000 0.0000 -0.0000 0.0000 0.0000 0.0000 31.4172 68.2773 -145.3815 170.2929 -80.5721 -163.0114 0.0000 0.0000 0.0000 1.0043 -3.1418 -16.8302 0.0000 0.0000 0.0000 -17.3343 -4.3532 1.8841 -61.1163 -14.3656 -18.7884 -11.9397 2.0268 35.8660 18.1657 -3.0045 -1.2942 0.0000 0.0000 0.0000 20.1008 1.0539 1.2109 54.2870 23.9915 -3.6671 12.0324 7.8559 28.5383 -9.5629 0.8560 -0.5073 0.0000 0.0000 0.0000 19.5348 5.0393 -170.7510 -172.7039 11.8666 161.1473 1.6031 -0.3090 7.3239 -0.0000 -0.0000 0.0000
62.7505 31.4162 -1.1249 31.8811 83.3491 -163.1560 0.0000 0.0000 0.0000 -172.3100 -45.0457 -32.1302 53.0448 23.0737 68.1228 -37.1949 13.8144 27.9261 0.0000 0.0000 -0.0000 0.0000 0.0000 0.0000 -154.6511 73.2938 14.8206 11.7775 -61.0935 22.5403 0.0000 0.0000 0.0000 0.9133 -3.0097 -16.6038 0.0000 0.0000 0.0000 -16.8754 -4.3665 1.8540 -61.5807 -12.5152 -20.8848 -10.9954 4.4317 37.4069 18.0163 -2.9082 -1.2697 0.0000 0.0000 0.0000 19.6218 0.8845 1.1462 54.2501 27.5172 -1.7397 11.4840 9.2516 26.2681 -8.4926 0.5193 -0.4259 0.0000 0.0000 0.0000 18.6501 7.8093 -172.2378 -170.1053 7.8333 162.5179 3.7832 -0.5890 5.3651 -0.0000 -0.0000 0.0000
61.5455 31.4529 -1.0027 14.6560 81.9453 179.9190 0.0000 0.0000 0.0000 -166.0477 -46.9961 -38.2272 59.9939 27.8991 69.3844 -31.3898 11.6487 28.1544 0.0000 0.0000 -0.0000 0.0000 0.0000 0.0000 -159.0829 -80.3433 -40.3295 62.7361 87.7453 72.8597 0.0000 0.0000 0.0000 1.0503 -3.0631 -16.4684 0.0000 0.0000 0.0000 -16.5559 -4.4725 1.8555 -61.7802 -10.4920 -22.2252 -10.4290 5.4544 39.4322 17.1270 -2.3905 -1.1318 0.0000 0.0000 0.0000 19.4980 0.7750 1.1127 54.1638 30.0538 3.1855 10.0817 12.4588 19.9300 -7.9660 1.0296 -0.4309 0.0000 0.0000 0.0000 17.4567 10.6908 -173.3054 -167.8410 3.9425 164.0231 5.3862 -0.6974 3.0192 -0.0000 -0.0000 0.0000
60.3290 31.5283 -0.8805 3.4542 80.6121 168.8300 0.0000 0.0000 0.0000 -158.7700 -48.7021 -44.0124 66.6938 35.4325 70.1187 -28.0828 9.8710 26.3514 0.0000 0.0000 -0.0000 0.0000 0.0000 0.0000 -162.1506 -65.2663 -32.7618 53.1642 75.3785 63.2034 0.0000 0.0000 0.0000 1.3084 -3.1665 -16.5120 0.0000 0.0000 0.0000 -16.4436 -4.5500 1.8652 -61.8212 -8.2914 -22.9662 -10.2113 5.3027 41.6672 16.1393 -2.0474 -1.0185 0.0000 0.0000 0.0000 19.3164 0.7637 1.1026 54.4196 31.7461 10.8602 7.3334 16.5722 10.0283 -8.2593 1.5035 -0.4771 0.0000 0.0000 0.0000 15.8338 13.3454 -173.5960 -166.2669 0.4668 166.5723 6.6198 -0.6496 -0.1264 -0.0000 -0.0000 0.0000
59.1294 31.5885 -0.7549 -4.2640 79.4348 161.0050 0.0000 0.0000 0.0000 -142.6778 -52.5326 -56.0505 79.2349 46.2180 78.6866 -25.9435 8.5801 24.3502 0.0000 0.0000 -0.0000 0.0000 0.0000 0.0000 -163.9435 -63.3287 -31.3950 49.8716 74.8325 59.6997 0.0000 0.0000 0.0000 1.4763 -3.3761 -16.8830 0.0000 0.0000 0.0000 -16.3743 -4.5606 1.8625 -61.9415 -6.0772 -23.2442 -10.3332 5.2635 43.1744 15.4356 -2.0320 -0.9711 0.0000 0.0000 0.0000 18.9432 0.6854 1.0679 55.0517 32.8494 18.5850 3.6989 20.4529 -0.3102 -8.9062 1.4296 -0.5103 0.0000 0.0000 0.0000 14.0731 15.5602 -173.5803 -165.2795 -2.3766 169.2511 7.9088 -0.5500 -3.1328 -0.0000 -0.0000 0.0000
57.9597 31.6113 -0.6026 -11.0282 78.3796 154.0010 0.0000 0.0000 0.0000 -87.3053 -53.9919 -98.7235 121.1880 46.8036 122.2609 -22.4297 7.4458 24.5359 0.0000 0.0000 -0.0000 0.0000 0.0000 0.0000 -165.0893 -61.8557 -30.6572 48.2577 74.1923 58.0404 0.0000 0.0000 0.0000 1.5466 -3.7472 -17.4597 0.0000 0.0000 0.0000 -16.1851 -4.5519 1.8465 -62.2630 -4.0034 -23.2075 -10.6997 5.2502 43.5194 15.0129 -2.0478 -0.9457 0.0000 0.0000 0.0000 18.7691 0.5785 1.0340 55.3090 33.6290 22.3888 1.1530 23.5377 -6.1346 -9.2674 1.2670 -0.5200 0.0000 0.0000 0.0000 12.1114 17.5961 -173.7609 -164.5722 -4.6857 171.1456 9.3090 -0.4651 -5.2510 -0.0000 -0.0000 0.0000
